<svg id="图层_1" data-name="图层 1" xmlns="http://www.w3.org/2000/svg" viewBox="0 0 80 80"><defs><style>.cls-1{fill:#ffbab9;}.cls-2{fill:#fea09f;}.cls-3{fill:#ff4359;}.cls-4{fill:#fff;}</style></defs><title>画板 1</title><g id="热销"><path id="矩形_577_拷贝_7" data-name="矩形 577 拷贝 7" class="cls-1" d="M46.27,40.27h32l-5.43,8,5.43,8h-32Zm-17,0H.27l5.43,8-5.43,8h29Z"/><circle id="椭圆_572_拷贝_8" data-name="椭圆 572 拷贝 8" class="cls-2" cx="39.27" cy="33.27" r="33"/><circle id="椭圆_572_拷贝_8-2" data-name="椭圆 572 拷贝 8-2" class="cls-3" cx="39.71" cy="32.83" r="29.03"/><path id="热销_拷贝_5" data-name="热销 拷贝 5" class="cls-4" d="M37.65,50.76a.81.81,0,0,0,.7-.43,6.55,6.55,0,0,0,.51-2.7L37.71,47a15.34,15.34,0,0,1-.11,1.55.93.93,0,0,1-.24.66.58.58,0,0,1-.29-.45,11.15,11.15,0,0,1-.37-3.57V42H33.44v-2H32v2h-1.7v1.49H32a14.32,14.32,0,0,1-.24,2.16c-.34-.22-.67-.45-1-.64l-.81,1.18a13.47,13.47,0,0,1,1.41.91,6.51,6.51,0,0,1-2.12,2.8l1.12,1a7.51,7.51,0,0,0,2.21-2.82,17.64,17.64,0,0,1,1.64,1.52l.86-1.3a17.44,17.44,0,0,0-2-1.71,13.76,13.76,0,0,0,.42-3.1h1.77v1.73c0,2.43.34,4,1,4.82A1.88,1.88,0,0,0,37.65,50.76ZM24.28,42v1.47h2.15v2.44c-.84.18-1.7.32-2.56.43l.35,1.43c.75-.13,1.49-.29,2.21-.45v1.55a.49.49,0,0,1-.37.58H26a9.83,9.83,0,0,1-1.35-.11L25,50.77h1.52A1.35,1.35,0,0,0,28,49.2V46.91l1.71-.46V45c-.56.19-1.14.35-1.71.51V43.42h1.82V41.95H28V40H26.43v1.9H24.28Zm1.65,9.2A11.47,11.47,0,0,1,24,54l1.25.91a14.89,14.89,0,0,0,2-3.17Zm3.84.45-1.42.29a20.25,20.25,0,0,1,.77,3l1.52-.35C30.38,53.49,30.09,52.52,29.77,51.6Zm3.32-.22-1.43.3a16.3,16.3,0,0,1,1.14,3.19l1.5-.35A23.56,23.56,0,0,0,33.09,51.38Zm3.07-.48-1.23.78a23.94,23.94,0,0,1,2.16,3.22l1.26-.9a24.85,24.85,0,0,0-2.19-3.1ZM50.45,40.11v4.3h-3V54.77H49V51.35h4.42v1.23c0,.51-.19.78-.56.78l-1.46-.08.4,1.46h1.56c1.05,0,1.58-.61,1.58-1.82v-8.5h-3v-4.3H50.45ZM49,48.61h4.42v1.46H49V48.61Zm4.42-1.3H49V45.86h4.42Zm-5.07-6.6L47,41.34A17.74,17.74,0,0,1,48.49,44l1.23-.62a26.66,26.66,0,0,0-1.4-2.62Zm5.74-.16a16,16,0,0,1-1.47,2.77l1.23.64a15.73,15.73,0,0,0,1.51-2.82Zm-11.33-.46a16.68,16.68,0,0,1-2.1,5.2l1.24.78c.19-.32.36-.64.56-1v1.25h.84V48H41.19v1.41h2.08v3.17a.71.71,0,0,1-.57.61l.62,1.3A17,17,0,0,0,47,53.08l-.26-1.35a13.18,13.18,0,0,1-2,1V49.41h2.08V48H44.75V46.35h1.53V45H42.47c.29-.56.58-1.17.84-1.81h3.25V41.74H43.82c.13-.43.25-.88.38-1.34Z"/></g></svg>